<svg width="104" height="38" viewBox="0 0 104 38" fill="none" xmlns="http://www.w3.org/2000/svg">
<path d="M45.9668 8.52344V12.5408H49.2246V14.8294H45.9668V24.7218C45.9668 26.2424 46.6116 26.9313 48.0476 26.9313C48.37 26.9313 49.0157 26.8831 49.209 26.8513V29.1881C48.8701 29.2681 48.0962 29.3162 47.4349 29.3162C44.3539 29.3162 43.1605 28.0674 43.1605 24.8663V14.8294H40.6602V12.5408H43.1605V8.52344H45.9676H45.9668Z" fill="#5E72E4"/>
<path d="M49.8855 24.4822C49.8855 21.6329 52.0955 19.8405 55.9661 19.616L60.7726 19.3442V17.9518C60.7726 15.9186 59.418 14.7025 57.0953 14.7025C54.9339 14.7025 53.5784 15.7113 53.2239 17.3437H50.5139C50.7071 14.4625 53.1919 12.2539 57.1595 12.2539C61.1271 12.2539 63.5789 14.3671 63.5789 17.68V29.1893H60.9173V26.3236H60.8523C59.8522 28.2286 57.7228 29.4775 55.4651 29.4775C52.1259 29.4775 49.8838 27.477 49.8838 24.4831L49.8855 24.4822ZM60.7735 22.8653V21.5047L56.2893 21.7765C54.0308 21.9201 52.7403 22.9126 52.7403 24.4814C52.7403 26.0501 54.0793 27.1063 56.0961 27.1063C58.7411 27.1063 60.7735 25.2657 60.7735 22.8645V22.8653Z" fill="#5E72E4"/>
<path d="M65.9658 8.52344H68.7721V29.1889H65.9658V8.52344Z" fill="#5E72E4"/>
<path d="M70.4179 20.8644C70.4179 15.6464 73.3056 12.2527 77.5315 12.2527C79.9347 12.2527 81.87 13.4215 82.8701 15.2457H82.9351V8.52344H85.7414V29.1889H83.0634V26.3714H83.0149C81.9341 28.2928 80.0145 29.4771 77.5947 29.4771C73.3203 29.4771 70.417 26.0833 70.417 20.8653L70.4179 20.8644ZM73.2891 20.8644C73.2891 24.6427 75.1603 27.0276 78.1277 27.0276C81.0952 27.0276 82.9507 24.5945 82.9507 20.8644C82.9507 17.1343 81.0146 14.7021 78.1277 14.7021C75.2409 14.7021 73.2891 17.1034 73.2891 20.8644Z" fill="#5E72E4"/>
<path d="M87.3848 20.8647C87.3848 15.5504 90.5143 12.2529 95.1596 12.2529C99.805 12.2529 102.918 15.5504 102.918 20.8647C102.918 26.179 99.7885 29.4765 95.1596 29.4765C90.5308 29.4765 87.3848 26.1627 87.3848 20.8647ZM100.063 20.8647C100.063 16.9428 98.1271 14.7024 95.1596 14.7024C92.1922 14.7024 90.2396 16.9437 90.2396 20.8647C90.2396 24.7857 92.1913 27.0279 95.1596 27.0279C98.128 27.0279 100.063 24.7866 100.063 20.8647Z" fill="#5E72E4"/>
<path d="M37.1119 17.5673C22.4748 20.5611 15.5848 28.109 14.2987 31.3162C13.9182 32.2709 13.7102 33.2298 13.6712 34.1948C13.6261 34.1785 13.5828 34.163 13.5377 34.1466C11.8235 33.524 10.5807 31.9784 10.4403 30.1723C10.3883 29.4937 10.4836 28.7919 10.7505 28.115L10.7705 28.0686C13.7726 21.9759 19.9693 17.8778 36.1473 13.0468C35.974 12.5566 35.779 12.0767 35.5649 11.6071C26.7466 13.9524 16.5667 17.3609 11.1449 23.7958C9.4878 25.7619 8.56393 27.9577 8.51453 30.5206C8.51453 30.5318 8.51453 30.543 8.51453 30.5533C8.5128 30.6892 8.50413 31.0048 8.49807 31.2001C8.49807 31.1984 8.49633 31.1984 8.49633 31.1984C8.336 31.0607 8.2008 30.8973 8.09593 30.715C6.69367 28.2922 6.4666 25.9701 7.40173 23.6376C8.167 21.7308 10.3857 18.9485 14.5266 16.2144C22.1238 11.1968 30.5417 8.82391 33.3731 8.00858C29.9793 3.68678 24.6354 0.94835 18.6528 1.09972C9.0198 1.34312 1.2172 9.1817 1.08287 18.743C0.941601 28.7506 9.0744 36.9049 19.1243 36.9049C29.1741 36.9049 37.1691 28.8891 37.1691 18.9993C37.1691 18.5176 37.1492 18.0394 37.1111 17.5673H37.1119ZM22.363 6.38651C23.4273 6.38651 24.2913 7.24398 24.2913 8.30014C24.2913 9.35629 23.4273 10.2138 22.363 10.2138C21.2987 10.2138 20.4347 9.35629 20.4347 8.30014C20.4347 7.24398 21.2987 6.38651 22.363 6.38651ZM14.4876 4.40493C15.3733 4.40493 16.0935 5.11792 16.0935 5.9969C16.0935 6.87588 15.3733 7.58887 14.4876 7.58887C13.6019 7.58887 12.8834 6.87588 12.8834 5.9969C12.8834 5.11792 13.6019 4.40493 14.4876 4.40493ZM9.636 6.69699C10.4715 6.10785 11.6406 6.38737 12.1112 7.29129C12.5211 8.07222 12.2499 9.03549 11.4924 9.4939C7.64267 11.8143 4.878 14.2294 3.22613 16.7236C3.96193 12.5893 6.3314 9.02689 9.636 6.69699ZM5.88853 23.0416C5.45693 24.1158 5.23333 25.1986 5.2134 26.2874C5.2082 26.6684 5.22813 27.052 5.2732 27.4347C4.52613 26.2315 3.93593 24.9225 3.52687 23.5369C3.162 22.0275 3.28333 20.4382 3.86747 18.9915C4.02607 18.5976 4.17427 18.2682 4.26093 18.1194C6.6278 14.109 11.2939 11.153 16.9333 8.50655C17.7827 8.1092 18.7967 8.3655 19.3505 9.11719C19.3591 9.12751 19.3669 9.13869 19.3739 9.14902C20.0941 10.1252 19.7509 11.5125 18.658 12.0405C11.3191 15.584 7.517 18.9769 5.88853 23.0407V23.0416ZM19.6217 35.1039C19.3834 35.1168 19.1433 35.1237 18.9015 35.1254C18.7195 35.1219 18.5349 35.1168 18.3529 35.109C18.0877 35.0961 17.8225 35.0531 17.5738 34.962C16.2097 34.4571 15.447 32.8763 16.0563 31.4383C16.2114 31.0711 16.3899 30.7184 16.5867 30.4054C18.411 27.4958 21.0968 25.7198 25.0895 23.6212C26.1287 23.0751 27.4131 23.5619 27.8178 24.6559L27.8325 24.6937C28.1679 25.6011 27.7762 26.6185 26.9156 27.0752C23.4177 28.9244 21.1817 30.5198 20.0577 33.3253C19.8211 33.9144 19.6772 34.507 19.6209 35.103L19.6217 35.1039ZM27.0534 32.792C25.3235 33.8559 23.3709 34.5947 21.284 34.9284C21.3421 34.5939 21.4339 34.2567 21.5691 33.9222C22.1108 32.5702 23.2955 31.2147 25.0731 29.8954C25.8834 29.2942 27.0395 29.4997 27.5968 30.3374C28.1454 31.1614 27.9001 32.2726 27.0534 32.792ZM29.3683 30.4338C28.5363 30.4338 27.862 29.7638 27.862 28.939C27.862 28.1142 28.5371 27.4442 29.3683 27.4442C30.1994 27.4442 30.8728 28.1142 30.8728 28.939C30.8728 29.7638 30.2003 30.4338 29.3683 30.4338ZM30.3606 24.8958C29.3345 24.8958 28.5025 24.0685 28.5025 23.0502C28.5025 22.0318 29.3345 21.2062 30.3606 21.2062C31.3867 21.2062 32.2187 22.0318 32.2187 23.0502C32.2187 24.0685 31.3867 24.8958 30.3606 24.8958Z" fill="#5E72E4"/>
</svg>
