<svg width="46" height="46" viewBox="0 0 46 46" fill="none" xmlns="http://www.w3.org/2000/svg">
<path fill-rule="evenodd" clip-rule="evenodd" d="M23 46C35.7025 46 46 35.7025 46 23C46 10.2975 35.7025 0 23 0C10.2975 0 0 10.2975 0 23C0 35.7025 10.2975 46 23 46Z" fill="#233CC5"/>
<path fill-rule="evenodd" clip-rule="evenodd" d="M24.1927 30.405V23.378H26.5514L26.9045 20.6395H24.1927V18.8911C24.1927 18.0982 24.4129 17.5579 25.5499 17.5579L27 17.5573V15.1079C26.7492 15.0746 25.8884 15 24.8869 15C22.7961 15 21.3647 16.2762 21.3647 18.6199V20.6395H19V23.378H21.3647V30.405H24.1927Z" fill="white"/>
</svg>
