<svg width="46" height="46" viewBox="0 0 46 46" fill="none" xmlns="http://www.w3.org/2000/svg">
<path fill-rule="evenodd" clip-rule="evenodd" d="M23 46C35.7025 46 46 35.7025 46 23C46 10.2975 35.7025 0 23 0C10.2975 0 0 10.2975 0 23C0 35.7025 10.2975 46 23 46Z" fill="#F5F5F5"/>
<path d="M23.7778 30H20.6667V20.6667H23.7778V22.2222C24.4409 21.3785 25.4466 20.8756 26.5194 20.851C28.4488 20.8617 30.0056 22.4317 30 24.3611V30H26.8889V24.75C26.7644 23.8809 26.0191 23.2361 25.1412 23.238C24.7572 23.2501 24.3947 23.4183 24.1374 23.7036C23.8801 23.9889 23.7503 24.3668 23.7778 24.75V30ZM19.1111 30H16V20.6667H19.1111V30ZM17.5556 19.1111C16.6964 19.1111 16 18.4147 16 17.5556C16 16.6964 16.6964 16 17.5556 16C18.4147 16 19.1111 16.6964 19.1111 17.5556C19.1111 17.9681 18.9472 18.3638 18.6555 18.6555C18.3638 18.9472 17.9681 19.1111 17.5556 19.1111Z" fill="black"/>
</svg>
