<svg width="46" height="46" viewBox="0 0 46 46" fill="none" xmlns="http://www.w3.org/2000/svg">
<path fill-rule="evenodd" clip-rule="evenodd" d="M23 46C35.7025 46 46 35.7025 46 23C46 10.2975 35.7025 0 23 0C10.2975 0 0 10.2975 0 23C0 35.7025 10.2975 46 23 46Z" fill="#F5F5F5"/>
<path fill-rule="evenodd" clip-rule="evenodd" d="M26.9512 15.8C28.024 15.8 29.056 16.224 29.8152 16.9848C30.5752 17.744 31 18.768 31 19.84V26.16C31 28.392 29.184 30.2 26.9512 30.2H19.048C16.8152 30.2 15 28.392 15 26.16V19.84C15 17.608 16.8072 15.8 19.048 15.8H26.9512ZM28.2239 21.032L28.2879 20.968C28.4791 20.736 28.4791 20.4 28.2791 20.168C28.1679 20.0488 28.0151 19.976 27.8559 19.96C27.6879 19.9512 27.5279 20.008 27.4071 20.12L23.7999 23C23.3359 23.3848 22.6711 23.3848 22.1999 23L18.5999 20.12C18.3511 19.936 18.0071 19.96 17.7999 20.176C17.5839 20.392 17.5599 20.736 17.7431 20.976L17.8479 21.08L21.4879 23.92C21.9359 24.272 22.4791 24.464 23.0479 24.464C23.6151 24.464 24.1679 24.272 24.6151 23.92L28.2239 21.032Z" fill="black"/>
</svg>
