<svg width="46" height="46" viewBox="0 0 46 46" fill="none" xmlns="http://www.w3.org/2000/svg">
<path fill-rule="evenodd" clip-rule="evenodd" d="M23 46C35.7025 46 46 35.7025 46 23C46 10.2975 35.7025 0 23 0C10.2975 0 0 10.2975 0 23C0 35.7025 10.2975 46 23 46Z" fill="#F5F5F5"/>
<path fill-rule="evenodd" clip-rule="evenodd" d="M29.1152 19.0554C29.7932 18.6498 30.3135 18.0066 30.5586 17.2404C29.9238 17.616 29.2222 17.8892 28.4728 18.0357C27.8755 17.3981 27.0218 17 26.0771 17C24.2655 17 22.7957 18.4695 22.7957 20.2817C22.7957 20.539 22.8239 20.7887 22.8803 21.0291C20.1521 20.892 17.7338 19.5869 16.1138 17.5991C15.8311 18.0854 15.6696 18.6498 15.6696 19.2507C15.6696 20.3887 16.249 21.3934 17.13 21.9822C16.5928 21.9662 16.0856 21.8169 15.6424 21.5728V21.6131C15.6424 23.2038 16.774 24.5305 18.2766 24.831C18.0015 24.908 17.7113 24.9465 17.4117 24.9465C17.2004 24.9465 16.9938 24.9268 16.7937 24.8883C17.2117 26.1915 18.4231 27.1408 19.86 27.1662C18.7368 28.0469 17.3206 28.5718 15.7832 28.5718C15.5184 28.5718 15.2564 28.5568 15 28.5268C16.4528 29.4563 18.179 30 20.0319 30C26.0705 30 29.3715 25 29.3715 20.6629C29.3715 20.5202 29.3687 20.3775 29.3631 20.2376C30.0045 19.7746 30.5614 19.1972 31 18.539C30.4121 18.8 29.7791 18.9765 29.1152 19.0554Z" fill="black"/>
</svg>
